HIERARCHY
ROOT Pelvis
{
	OFFSET 0.000000 0.000000 0.000000
	CHANNELS 6 Xposition Yposition Zposition Xrotation Yrotation Zrotation
	JOINT LeftUpLeg_virtual
	{
		OFFSET 0.000000 0.000000 0.000000
		CHANNELS 3 Xrotation Yrotation Zrotation
		JOINT LeftUpLeg
		{
			OFFSET 18.735201 -5.666702 -4.541200
			CHANNELS 3 Xrotation Yrotation Zrotation
			JOINT LeftLeg
			{
				OFFSET -0.021200 -31.938179 0.493100
				CHANNELS 3 Xrotation Yrotation Zrotation
				JOINT LeftFoot
				{
					OFFSET 0.021200 -31.938179 -4.336299
					CHANNELS 3 Xrotation Yrotation Zrotation
					JOINT LeftToeBase
					{
						OFFSET 0.943001 -26.722000 15.023500
						CHANNELS 3 Xrotation Yrotation Zrotation
						End Site
						{
							OFFSET 0 0 0
						}
					}
				}
			}
		}
	}
	JOINT RightUpLeg_virtual
	{
		OFFSET 0.000000 0.000000 0.000000
		CHANNELS 3 Xrotation Yrotation Zrotation
		JOINT RightUpLeg
		{
			OFFSET -18.735201 -5.666702 -4.541200
			CHANNELS 3 Xrotation Yrotation Zrotation
			JOINT RightLeg
			{
				OFFSET 0.018946 -31.938133 0.493100
				CHANNELS 3 Xrotation Yrotation Zrotation
				JOINT RightFoot
				{
					OFFSET -0.018946 -31.938126 -4.336299
					CHANNELS 3 Xrotation Yrotation Zrotation
					JOINT RightToeBase
					{
						OFFSET -0.943001 -26.722004 15.023500
						CHANNELS 3 Xrotation Yrotation Zrotation
						End Site
						{
							OFFSET 0 0 0
						}
					}
				}
			}
		}
	}
	JOINT Hips_virtual
	{
		OFFSET 0.000000 0.000000 0.000000
		CHANNELS 3 Xrotation Yrotation Zrotation
		JOINT Hips
		{
			OFFSET -0.000000 -0.000000 -0.000000
			CHANNELS 3 Xrotation Yrotation Zrotation
			JOINT Spine
			{
				OFFSET 0.000000 10.199997 -0.299500
				CHANNELS 3 Xrotation Yrotation Zrotation
				JOINT Spine1
				{
					OFFSET 0.000000 11.900002 -1.516600
					CHANNELS 3 Xrotation Yrotation Zrotation
					JOINT Spine2
					{
						OFFSET 0.000000 13.600006 -2.842500
						CHANNELS 3 Xrotation Yrotation Zrotation
						JOINT Neck_virtual
						{
							OFFSET 0.000000 0.000000 0.000000
							CHANNELS 3 Xrotation Yrotation Zrotation
							JOINT Neck
							{
								OFFSET 0.000000 9.624100 -2.890100
								CHANNELS 3 Xrotation Yrotation Zrotation
								JOINT Head
								{
									OFFSET 0.000000 14.068802 -1.351900
									CHANNELS 3 Xrotation Yrotation Zrotation
									End Site
									{
										OFFSET 0 0 0
									}
								}
							}
						}
						JOINT LeftShoulder_virtual
						{
							OFFSET 0.000000 0.000000 0.000000
							CHANNELS 3 Xrotation Yrotation Zrotation
							JOINT LeftShoulder
							{
								OFFSET 15.263000 10.923401 -0.547700
								CHANNELS 3 Xrotation Yrotation Zrotation
								JOINT LeftArm
								{
									OFFSET 25.438599 -2.830597 -13.032500
									CHANNELS 3 Xrotation Yrotation Zrotation
									JOINT LeftForeArm
									{
										OFFSET 29.960503 0.000000 0.000000
										CHANNELS 3 Xrotation Yrotation Zrotation
										JOINT LeftHand
										{
											OFFSET 27.849251 0.000000 0.000000
											CHANNELS 3 Xrotation Yrotation Zrotation
											End Site
											{
												OFFSET 0 0 0
											}
										}
									}
								}
							}
						}
						JOINT RightShoulder_virtual
						{
							OFFSET 0.000000 0.000000 0.000000
							CHANNELS 3 Xrotation Yrotation Zrotation
							JOINT RightShoulder
							{
								OFFSET -15.263000 10.923401 -0.547700
								CHANNELS 3 Xrotation Yrotation Zrotation
								JOINT RightArm
								{
									OFFSET -25.438599 -2.830597 -13.032500
									CHANNELS 3 Xrotation Yrotation Zrotation
									JOINT RightForeArm
									{
										OFFSET -29.960503 0.000000 0.000000
										CHANNELS 3 Xrotation Yrotation Zrotation
										JOINT RightHand
										{
											OFFSET -27.849251 0.000000 0.000000
											CHANNELS 3 Xrotation Yrotation Zrotation
											End Site
											{
												OFFSET 0 0 0
											}
										}
									}
								}
							}
						}
					}
				}
			}
		}
	}
}
MOTION
Frames: 4
Frame Time: 0.03333333
-3.891680 83.068321 7.089758 0.000000 0.000000 0.000000 -1.151490 -44.521919 3.108250 -38.479681 7.146177 23.029776 54.674414 -13.325994 4.158305 -20.937854 -3.548587 -26.156030 0.000000 0.000000 0.000000 -1.781628 -43.721434 2.944847 -18.746173 -4.222719 -33.787949 62.433981 -13.420103 0.811390 -39.991263 0.608256 21.119362 0.000000 0.000000 0.000000 -1.549198 -43.758403 2.936106 -0.794740 0.029624 0.059159 7.981330 8.153696 -3.205064 6.086281 0.771349 -1.052214 0.000000 0.000000 0.000000 5.946435 2.254475 0.038980 -0.788216 0.219946 0.244054 0.000000 0.000000 0.000000 8.811850 1.689903 0.124594 -4.616688 7.992867 -6.087756 -40.823207 -0.773373 -56.910717 -168.365379 -64.978185 -160.037124 0.000000 0.000000 0.000000 4.497198 2.465134 -1.946482 9.445898 3.837427 3.451057 -53.337668 36.797590 75.076879 173.497214 58.960037 -169.659959 0.000000 0.000000 0.000000 
-3.877324 83.069336 7.132439 0.000000 0.000000 0.000000 -0.953843 -44.567527 3.181558 -38.398439 7.118165 23.012610 54.548428 -13.357538 4.249067 -20.378088 -3.610829 -26.254247 0.000000 0.000000 0.000000 -1.575920 -43.737051 2.935719 -18.811873 -4.113256 -33.536823 62.263369 -13.380038 1.089115 -40.206510 0.807717 21.274731 0.000000 0.000000 0.000000 -1.358564 -43.835362 2.979900 -0.802167 0.110674 0.029416 7.926830 8.428988 -3.124358 5.789114 0.763192 -1.178416 0.000000 0.000000 0.000000 5.593380 2.184935 -0.073953 -0.737413 0.262605 0.297394 0.000000 0.000000 0.000000 8.626604 1.728398 0.174968 -4.409606 7.617582 -6.210484 -42.542708 -1.910519 -55.210902 -166.008062 -66.574851 -157.470503 0.000000 0.000000 0.000000 4.205386 2.412356 -2.025220 9.509722 3.677730 3.132779 -54.160777 38.615482 74.458235 174.086618 59.397832 -170.034281 0.000000 0.000000 0.000000 
-3.942351 83.233925 7.213881 0.000000 0.000000 0.000000 -0.620251 -44.696112 3.307172 -38.327128 7.380736 23.307401 54.197671 -13.235368 4.193086 -20.143765 -3.518060 -26.001501 0.000000 0.000000 0.000000 -1.256594 -43.872313 3.017398 -18.371937 -3.971349 -32.957565 61.348711 -13.326753 0.975270 -40.236839 1.165330 21.322380 0.000000 0.000000 0.000000 -1.015661 -44.076232 3.094847 -0.802600 0.109313 0.003836 7.837695 8.785298 -3.007828 5.362678 0.735440 -1.365206 0.000000 0.000000 0.000000 5.189325 2.154616 -0.271781 -0.600154 0.298485 0.395242 0.000000 0.000000 0.000000 8.389388 1.758581 0.166487 -4.408967 6.407836 -6.362294 -44.120765 -2.956685 -53.141529 -159.820457 -69.388179 -151.082937 0.000000 0.000000 0.000000 3.596910 2.374323 -2.109163 9.587040 3.427773 3.739257 -53.320295 41.501561 71.905800 175.315055 58.829560 -170.869599 0.000000 0.000000 0.000000 
-4.062890 83.511185 7.324543 0.000000 0.000000 0.000000 -0.234411 -45.263988 3.422600 -38.049307 7.899803 23.817047 53.646580 -13.068456 4.135285 -20.344173 -3.326670 -25.546222 0.000000 0.000000 0.000000 -0.891150 -44.524463 3.156990 -17.959467 -3.570756 -32.287032 60.266994 -13.293480 0.584755 -40.204406 1.600959 21.034027 0.000000 0.000000 0.000000 -0.530275 -44.812625 3.282746 -0.799260 0.028619 -0.023625 7.690035 9.161836 -2.946932 4.867412 0.728938 -1.559803 0.000000 0.000000 0.000000 4.803699 2.181440 -0.462858 -0.418280 0.335698 0.538369 0.000000 0.000000 0.000000 8.063026 1.777225 0.058194 -4.595803 4.824331 -6.590765 -44.761645 -3.140457 -51.164168 -152.013346 -71.318513 -143.294459 0.000000 0.000000 0.000000 2.866683 2.391435 -2.185481 9.679752 2.984003 5.014181 -51.270043 44.906571 68.472032 176.614007 58.191381 -171.767114 0.000000 0.000000 0.000000 
